# Blender v2.76 (sub 0) OBJ File: 'umbrella.blend'
# www.blender.org
mtllib umbrella.mtl
o Cone
v 0.026839 0.219433 0.101473
v 0.026839 0.272529 0.101473
v 0.032018 0.219433 0.101983
v 0.032018 0.272529 0.101983
v 0.036998 0.219433 0.103494
v 0.036998 0.272529 0.103494
v 0.041588 0.219433 0.105947
v 0.041588 0.272529 0.105947
v 0.045611 0.219433 0.109249
v 0.045611 0.272529 0.109249
v 0.048913 0.219433 0.113272
v 0.048913 0.272529 0.113272
v 0.051366 0.219433 0.117862
v 0.051366 0.272529 0.117862
v 0.052877 0.219433 0.122842
v 0.052877 0.272529 0.122842
v 0.053387 0.219433 0.128021
v 0.053387 0.272529 0.128021
v 0.052877 0.219433 0.133200
v 0.052877 0.272529 0.133200
v 0.051366 0.219433 0.138180
v 0.051366 0.272529 0.138180
v 0.048913 0.219433 0.142770
v 0.048913 0.272529 0.142770
v 0.045611 0.219433 0.146793
v 0.045611 0.272529 0.146793
v 0.041588 0.219433 0.150095
v 0.041588 0.272529 0.150095
v 0.036998 0.219433 0.152548
v 0.036998 0.272529 0.152548
v 0.032018 0.219433 0.154059
v 0.032018 0.272529 0.154059
v 0.026839 0.219433 0.154569
v 0.026839 0.272529 0.154569
v 0.021660 0.219433 0.154059
v 0.021660 0.272529 0.154059
v 0.016680 0.219433 0.152548
v 0.016680 0.272529 0.152548
v 0.012090 0.219433 0.150095
v 0.012090 0.272529 0.150095
v 0.008067 0.219433 0.146793
v 0.008067 0.272529 0.146793
v 0.004765 0.219433 0.142770
v 0.004765 0.272529 0.142770
v 0.002312 0.219433 0.138180
v 0.002312 0.272529 0.138180
v 0.000801 0.219433 0.133200
v 0.000801 0.272529 0.133200
v 0.000291 0.219433 0.128021
v 0.000291 0.272529 0.128021
v 0.000801 0.219433 0.122842
v 0.000801 0.272529 0.122842
v 0.002312 0.219433 0.117862
v 0.002312 0.272529 0.117862
v 0.004765 0.219433 0.113272
v 0.004765 0.272529 0.113272
v 0.008067 0.219433 0.109249
v 0.008067 0.272529 0.109249
v 0.012090 0.219433 0.105947
v 0.012090 0.272529 0.105947
v 0.016680 0.219433 0.103494
v 0.016680 0.272529 0.103494
v 0.021660 0.219433 0.101983
v 0.021660 0.272529 0.101983
v 0.026839 0.641652 0.101473
v 0.032018 0.641652 0.101983
v 0.036998 0.641652 0.103494
v 0.041588 0.641652 0.105947
v 0.045611 0.641652 0.109249
v 0.048913 0.641652 0.113272
v 0.051366 0.641652 0.117862
v 0.052877 0.641652 0.122842
v 0.053387 0.641652 0.128021
v 0.052877 0.641652 0.133200
v 0.051366 0.641652 0.138180
v 0.048913 0.641652 0.142770
v 0.045611 0.641652 0.146793
v 0.041588 0.641652 0.150095
v 0.036998 0.641652 0.152548
v 0.032018 0.641652 0.154059
v 0.026839 0.641652 0.154569
v 0.021660 0.641652 0.154059
v 0.016680 0.641652 0.152548
v 0.012090 0.641652 0.150095
v 0.008067 0.641652 0.146793
v 0.004765 0.641652 0.142770
v 0.002312 0.641652 0.138180
v 0.000801 0.641652 0.133200
v 0.000291 0.641652 0.128021
v 0.000801 0.641652 0.122842
v 0.002312 0.641652 0.117862
v 0.004765 0.641652 0.113272
v 0.008067 0.641652 0.109249
v 0.012090 0.641652 0.105947
v 0.016680 0.641652 0.103494
v 0.021660 0.641652 0.101983
v 0.026839 1.010776 0.101473
v 0.032018 1.010776 0.101983
v 0.036998 1.010776 0.103494
v 0.041588 1.010776 0.105947
v 0.045611 1.010776 0.109249
v 0.048912 1.010776 0.113272
v 0.051366 1.010776 0.117862
v 0.052876 1.010776 0.122842
v 0.053387 1.010776 0.128021
v 0.052876 1.010776 0.133200
v 0.051366 1.010776 0.138180
v 0.048912 1.010776 0.142770
v 0.045611 1.010776 0.146793
v 0.041588 1.010776 0.150095
v 0.036998 1.010776 0.152548
v 0.032018 1.010776 0.154059
v 0.026839 1.010776 0.154569
v 0.021659 1.010776 0.154059
v 0.016679 1.010776 0.152548
v 0.012089 1.010776 0.150095
v 0.008067 1.010776 0.146793
v 0.004765 1.010776 0.142770
v 0.002312 1.010776 0.138180
v 0.000801 1.010776 0.133200
v 0.000291 1.010776 0.128021
v 0.000801 1.010776 0.122842
v 0.002312 1.010776 0.117862
v 0.004765 1.010776 0.113272
v 0.008067 1.010776 0.109249
v 0.012090 1.010776 0.105947
v 0.016679 1.010776 0.103494
v 0.021660 1.010776 0.101983
v 0.026838 1.195337 0.101473
v 0.032018 1.195337 0.101983
v 0.036998 1.195337 0.103494
v 0.041588 1.195337 0.105947
v 0.045611 1.195337 0.109249
v 0.048912 1.195337 0.113272
v 0.051366 1.195337 0.117862
v 0.052876 1.195337 0.122842
v 0.053386 1.195337 0.128021
v 0.052876 1.195337 0.133200
v 0.051366 1.195337 0.138180
v 0.048912 1.195337 0.142770
v 0.045611 1.195337 0.146793
v 0.041588 1.195337 0.150095
v 0.036998 1.195337 0.152548
v 0.032018 1.195337 0.154059
v 0.026838 1.195337 0.154569
v 0.021659 1.195337 0.154059
v 0.016679 1.195337 0.152548
v 0.012089 1.195337 0.150095
v 0.008066 1.195337 0.146793
v 0.004765 1.195337 0.142770
v 0.002311 1.195337 0.138180
v 0.000801 1.195337 0.133200
v 0.000291 1.195337 0.128021
v 0.000801 1.195337 0.122842
v 0.002311 1.195337 0.117862
v 0.004765 1.195337 0.113272
v 0.008066 1.195337 0.109249
v 0.012089 1.195337 0.105947
v 0.016679 1.195337 0.103494
v 0.021659 1.195337 0.101983
v 0.026839 1.379899 0.101473
v 0.032018 1.379899 0.101983
v 0.036998 1.379899 0.103494
v 0.041588 1.379899 0.105947
v 0.045611 1.379899 0.109249
v 0.048912 1.379899 0.113272
v 0.051366 1.379899 0.117862
v 0.052876 1.379899 0.122842
v 0.053386 1.379899 0.128021
v 0.052876 1.379899 0.133200
v 0.051366 1.379899 0.138180
v 0.048912 1.379899 0.142770
v 0.045611 1.379899 0.146793
v 0.041588 1.379899 0.150095
v 0.036998 1.379899 0.152548
v 0.032018 1.379899 0.154059
v 0.026839 1.379899 0.154569
v 0.021659 1.379899 0.154059
v 0.016679 1.379899 0.152548
v 0.012089 1.379899 0.150095
v 0.008066 1.379899 0.146793
v 0.004765 1.379899 0.142770
v 0.002312 1.379899 0.138180
v 0.000801 1.379899 0.133200
v 0.000291 1.379899 0.128021
v 0.000801 1.379899 0.122842
v 0.002312 1.379899 0.117862
v 0.004765 1.379899 0.113272
v 0.008066 1.379899 0.109249
v 0.012089 1.379899 0.105947
v 0.016679 1.379899 0.103494
v 0.021659 1.379899 0.101983
v 0.665158 1.067639 -0.240513
v 0.026839 1.067639 -0.609047
v 0.026839 1.362467 0.126547
v 0.028116 1.362467 0.127284
v 0.652307 1.067639 -0.240513
v -0.598629 1.067639 -0.240513
v -0.611480 1.067639 -0.240513
v 0.026839 1.067639 -0.601627
v 0.025562 1.362467 0.127284
v 0.665158 1.067639 0.496555
v 0.028116 1.362467 0.128758
v 0.658733 1.067639 -0.236803
v 0.658733 1.067639 0.492845
v -0.605054 1.067639 -0.236803
v -0.611480 1.067639 0.496555
v 0.025562 1.362467 0.128758
v 0.026839 1.362467 0.129495
v 0.026839 1.067639 0.865089
v 0.652306 1.067639 0.496555
v -0.605054 1.067639 0.492845
v -0.598629 1.067639 0.496555
v 0.026839 1.067639 0.857669
v 0.026839 1.359493 0.126547
v 0.028116 1.359493 0.127284
v 0.025562 1.359493 0.127284
v 0.028116 1.359493 0.128758
v 0.025562 1.359493 0.128758
v 0.026839 1.359493 0.129495
v 0.211401 0.035323 -0.056541
v 0.211401 0.035323 0.312583
v -0.157723 0.035323 0.312583
v -0.157723 0.035323 -0.056541
v 0.211401 0.404446 -0.056541
v 0.211401 0.404446 0.312583
v -0.157723 0.404446 0.312583
v -0.157723 0.404446 -0.056541
vt 0.750475 0.000000
vt 1.000000 0.145427
vt 0.743552 0.299233
vt 0.500740 0.141714
vt 0.743053 0.298943
vt 0.742554 0.299226
vt 0.742553 0.299800
vt 0.500531 0.428855
vt 0.750056 0.574283
vt 0.743552 0.299808
vt 0.743052 0.300091
vt 0.999790 0.432569
vt 0.000295 0.144150
vt 0.002812 0.145606
vt 0.002522 0.428602
vt 0.250561 0.000000
vt 0.248038 0.004359
vt 0.002519 0.431510
vt 0.000000 0.432961
vt 0.250558 0.002907
vt 0.500531 0.144661
vt 0.249973 0.574715
vt 0.252492 0.573264
vt 0.249970 0.577622
vt 0.498008 0.149020
vt 0.498011 0.146112
vt 0.500235 0.433472
vt 0.497719 0.432016
vt 0.250266 0.288233
vt 0.250766 0.288523
vt 0.250265 0.289389
vt 0.250765 0.289100
vt 0.249765 0.289099
vt 0.249766 0.288522
vt 0.000000 0.000000
vn 0.210000 0.907500 -0.363700
vn 0.420000 0.907500 0.000000
vn 0.210000 0.907500 0.363800
vn -0.210000 0.907500 0.363700
vn 0.000000 1.000000 0.000000
vn -0.210000 0.907500 -0.363700
vn -0.420000 0.907500 0.000000
vn 0.000000 -1.000000 0.000000
vn -0.210000 -0.907500 0.363700
vn -0.420000 -0.907500 0.000000
vn -0.210000 -0.907500 -0.363700
vn 0.210000 -0.907500 -0.363800
vn 0.210000 -0.907500 -0.363700
vn 0.210000 -0.907500 0.363800
vn 0.210000 -0.907500 0.363700
vn 0.420000 -0.907500 0.000000
vn 0.210000 0.907500 -0.363800
vn 0.210000 0.907500 0.363700
vn -0.210000 0.907500 0.363800
vn -0.210000 0.907500 -0.363800
vn 0.000000 -0.685700 -0.727900
vn 0.000000 0.000000 -1.000000
vn 0.195100 0.000000 -0.980800
vn 0.142000 -0.685700 -0.713900
vn 0.382700 0.000000 -0.923900
vn 0.278500 -0.685700 -0.672500
vn 0.555600 0.000000 -0.831400
vn 0.404400 -0.685700 -0.605200
vn 0.707100 0.000000 -0.707100
vn 0.514700 -0.685700 -0.514700
vn 0.831400 0.000000 -0.555600
vn 0.605200 -0.685700 -0.404400
vn 0.923900 0.000000 -0.382700
vn 0.672500 -0.685700 -0.278500
vn 0.980800 0.000000 -0.195100
vn 0.713900 -0.685700 -0.142000
vn 1.000000 0.000000 0.000000
vn 0.727900 -0.685700 0.000000
vn 0.980800 0.000000 0.195100
vn 0.713900 -0.685700 0.142000
vn 0.923900 0.000000 0.382700
vn 0.672500 -0.685700 0.278500
vn 0.831400 0.000000 0.555600
vn 0.605200 -0.685700 0.404400
vn 0.707100 0.000000 0.707100
vn 0.514700 -0.685700 0.514700
vn 0.555600 0.000000 0.831400
vn 0.404400 -0.685700 0.605200
vn 0.382700 0.000000 0.923900
vn 0.278500 -0.685700 0.672500
vn 0.195100 0.000000 0.980800
vn 0.142000 -0.685700 0.713900
vn 0.000000 0.000000 1.000000
vn 0.000000 -0.685700 0.727900
vn -0.142000 -0.685700 0.713900
vn -0.195100 0.000000 0.980800
vn -0.278500 -0.685700 0.672500
vn -0.382700 0.000000 0.923900
vn -0.404400 -0.685700 0.605200
vn -0.555600 0.000000 0.831400
vn -0.514700 -0.685700 0.514700
vn -0.707100 0.000000 0.707100
vn -0.605200 -0.685700 0.404400
vn -0.831400 0.000000 0.555600
vn -0.672500 -0.685700 0.278500
vn -0.923900 0.000000 0.382700
vn -0.713900 -0.685700 0.142000
vn -0.980800 0.000000 0.195100
vn -0.727900 -0.685700 0.000000
vn -1.000000 0.000000 0.000000
vn -0.713900 -0.685700 -0.142000
vn -0.980800 0.000000 -0.195100
vn -0.672500 -0.685700 -0.278500
vn -0.923900 0.000000 -0.382700
vn -0.605200 -0.685700 -0.404400
vn -0.831400 0.000000 -0.555600
vn -0.514700 -0.685700 -0.514700
vn -0.707100 0.000000 -0.707100
vn -0.404400 -0.685700 -0.605200
vn -0.555600 0.000000 -0.831400
vn -0.278500 -0.685700 -0.672500
vn -0.142000 -0.685700 -0.713900
vn -0.195100 0.000000 -0.980800
vn -0.382700 0.000000 -0.923900
vn -0.142000 0.685700 0.713900
vn 0.142000 0.685600 -0.714000
vn 0.000000 0.685700 -0.727900
vn 0.278500 0.685700 -0.672500
vn 0.404400 0.685700 0.605200
vn 0.672500 0.685700 0.278500
vn 0.713900 0.685700 -0.142000
vn 0.514600 0.685600 -0.514800
vn -0.142000 0.685600 -0.713900
vn -0.514700 0.685700 -0.514700
vn -0.713900 0.685700 -0.142000
vn -0.672500 0.685700 0.278500
vn -0.404400 0.685700 0.605200
vn 0.142000 0.685700 0.713900
vn 0.514700 0.685700 0.514700
vn 0.713900 0.685700 0.142000
vn 0.672500 0.685700 -0.278500
vn 0.404400 0.685700 -0.605200
vn -0.278500 0.685700 -0.672500
vn -0.605200 0.685700 -0.404400
vn -0.727900 0.685700 0.000000
vn -0.605200 0.685700 0.404400
vn -0.278500 0.685700 0.672500
vn 0.278500 0.685700 0.672500
vn 0.605200 0.685700 0.404400
vn 0.727900 0.685700 0.000000
vn 0.605200 0.685700 -0.404400
vn -0.404400 0.685700 -0.605200
vn -0.672500 0.685700 -0.278500
vn -0.713900 0.685700 0.142000
vn -0.514700 0.685700 0.514700
vn 0.000000 0.685700 0.727900
usemtl Material_001
s off
f 193/1/1 194/2/1 195/3/1
f 202/4/2 193/1/2 196/5/2
f 202/4/3 203/6/3 209/7/3
f 210/8/4 209/7/4 207/9/4
f 196/5/5 195/3/5 201/10/5
f 196/5/5 201/10/5 203/6/5
f 201/10/5 208/11/5 203/6/5
f 208/11/5 209/7/5 203/6/5
f 194/2/6 199/12/6 195/3/6
f 208/11/7 201/10/7 207/9/7
f 194/13/8 200/14/8 198/15/8
f 194/13/8 193/16/8 197/17/8
f 206/18/8 199/19/8 198/15/8
f 204/20/8 193/16/8 202/21/8
f 197/17/8 193/16/8 204/20/8
f 199/19/8 206/18/8 212/22/8
f 212/22/8 213/23/8 207/24/8
f 202/21/8 211/25/8 205/26/8
f 210/27/8 214/28/8 211/25/8
f 210/27/8 207/24/8 213/23/8
f 197/17/9 216/29/9 200/14/9
f 197/17/9 204/20/9 216/29/9
f 205/26/10 218/30/10 204/20/10
f 211/25/11 214/28/11 218/30/11
f 218/30/11 205/26/11 211/25/11
f 213/23/12 219/31/12 220/32/12
f 213/23/13 212/22/13 219/31/13
f 216/29/8 217/33/8 215/34/8
f 216/29/8 218/30/8 217/33/8
f 217/33/8 218/30/8 219/31/8
f 219/31/8 218/30/8 220/32/8
f 215/34/14 217/33/14 198/15/14
f 217/33/15 206/18/15 198/15/15
f 212/22/16 206/18/16 217/33/16
f 196/5/17 193/1/17 195/3/17
f 203/6/2 202/4/2 196/5/2
f 210/8/18 202/4/18 209/7/18
f 209/7/19 208/11/19 207/9/19
f 199/12/20 201/10/20 195/3/20
f 201/10/7 199/12/7 207/9/7
f 199/19/8 194/13/8 198/15/8
f 200/14/8 194/13/8 197/17/8
f 205/26/8 204/20/8 202/21/8
f 207/24/8 199/19/8 212/22/8
f 202/21/8 210/27/8 211/25/8
f 214/28/8 210/27/8 213/23/8
f 216/29/9 215/34/9 200/14/9
f 218/30/10 216/29/10 204/20/10
f 214/28/11 220/32/11 218/30/11
f 214/28/13 213/23/13 220/32/13
f 200/14/15 215/34/15 198/15/15
f 219/31/16 212/22/16 217/33/16
usemtl Material_002
s 1
f 1/35/21 2/35/22 4/35/23
f 3/35/24 4/35/23 6/35/25
f 5/35/26 6/35/25 8/35/27
f 7/35/28 8/35/27 10/35/29
f 9/35/30 10/35/29 12/35/31
f 11/35/32 12/35/31 14/35/33
f 13/35/34 14/35/33 16/35/35
f 15/35/36 16/35/35 18/35/37
f 17/35/38 18/35/37 20/35/39
f 19/35/40 20/35/39 22/35/41
f 21/35/42 22/35/41 24/35/43
f 23/35/44 24/35/43 26/35/45
f 25/35/46 26/35/45 28/35/47
f 27/35/48 28/35/47 30/35/49
f 29/35/50 30/35/49 32/35/51
f 31/35/52 32/35/51 34/35/53
f 33/35/54 34/35/53 35/35/55
f 35/35/55 36/35/56 37/35/57
f 37/35/57 38/35/58 39/35/59
f 39/35/59 40/35/60 41/35/61
f 41/35/61 42/35/62 43/35/63
f 43/35/63 44/35/64 45/35/65
f 45/35/65 46/35/66 47/35/67
f 47/35/67 48/35/68 49/35/69
f 49/35/69 50/35/70 51/35/71
f 51/35/71 52/35/72 53/35/73
f 53/35/73 54/35/74 55/35/75
f 55/35/75 56/35/76 57/35/77
f 57/35/77 58/35/78 59/35/79
f 59/35/79 60/35/80 61/35/81
f 40/35/60 38/35/58 84/35/60
f 63/35/82 64/35/83 1/35/21
f 61/35/81 62/35/84 63/35/82
f 43/35/63 39/35/59 41/35/61
f 93/35/78 92/35/76 125/35/78
f 38/35/58 36/35/56 83/35/58
f 36/35/56 34/35/53 82/35/56
f 34/35/53 32/35/51 80/35/51
f 32/35/51 30/35/49 79/35/49
f 30/35/49 28/35/47 78/35/47
f 28/35/47 26/35/45 77/35/45
f 26/35/45 24/35/43 76/35/43
f 24/35/43 22/35/41 75/35/41
f 22/35/41 20/35/39 74/35/39
f 20/35/39 18/35/37 73/35/37
f 18/35/37 16/35/35 72/35/35
f 16/35/35 14/35/33 71/35/33
f 14/35/33 12/35/31 70/35/31
f 12/35/31 10/35/29 69/35/29
f 10/35/29 8/35/27 68/35/27
f 8/35/27 6/35/25 67/35/25
f 6/35/25 4/35/23 66/35/23
f 2/35/22 64/35/83 65/35/22
f 64/35/83 62/35/84 96/35/83
f 62/35/84 60/35/80 95/35/84
f 60/35/80 58/35/78 94/35/80
f 58/35/78 56/35/76 93/35/78
f 56/35/76 54/35/74 92/35/76
f 54/35/74 52/35/72 91/35/74
f 52/35/72 50/35/70 90/35/72
f 50/35/70 48/35/68 89/35/70
f 48/35/68 46/35/66 88/35/68
f 4/35/23 2/35/22 65/35/22
f 46/35/66 44/35/64 87/35/66
f 44/35/64 42/35/62 86/35/64
f 42/35/62 40/35/60 85/35/62
f 99/35/25 98/35/23 130/35/23
f 90/35/72 89/35/70 122/35/72
f 87/35/66 86/35/64 119/35/66
f 84/35/60 83/35/58 116/35/60
f 81/35/53 80/35/51 112/35/51
f 78/35/47 77/35/45 109/35/45
f 75/35/41 74/35/39 106/35/39
f 72/35/35 71/35/33 103/35/33
f 69/35/29 68/35/27 100/35/27
f 66/35/23 65/35/22 97/35/22
f 95/35/84 94/35/80 127/35/84
f 92/35/76 91/35/74 124/35/76
f 89/35/70 88/35/68 121/35/70
f 86/35/64 85/35/62 118/35/64
f 83/35/58 82/35/56 115/35/58
f 80/35/51 79/35/49 111/35/49
f 77/35/45 76/35/43 108/35/43
f 74/35/39 73/35/37 105/35/37
f 71/35/33 70/35/31 102/35/31
f 68/35/27 67/35/25 99/35/25
f 65/35/22 96/35/83 97/35/22
f 94/35/80 93/35/78 126/35/80
f 91/35/74 90/35/72 123/35/74
f 88/35/68 87/35/66 120/35/68
f 85/35/62 84/35/60 117/35/62
f 82/35/56 81/35/53 114/35/56
f 79/35/49 78/35/47 110/35/47
f 76/35/43 75/35/41 107/35/41
f 73/35/37 72/35/35 104/35/35
f 70/35/31 69/35/29 101/35/29
f 67/35/25 66/35/23 98/35/23
f 96/35/83 95/35/84 128/35/83
f 146/35/56 145/35/53 178/35/85
f 128/35/83 127/35/84 160/35/83
f 125/35/78 124/35/76 157/35/78
f 122/35/72 121/35/70 154/35/72
f 119/35/66 118/35/64 151/35/66
f 116/35/60 115/35/58 148/35/60
f 113/35/53 112/35/51 144/35/51
f 110/35/47 109/35/45 141/35/45
f 107/35/41 106/35/39 138/35/39
f 104/35/35 103/35/33 135/35/33
f 101/35/29 100/35/27 132/35/27
f 98/35/23 97/35/22 129/35/22
f 127/35/84 126/35/80 159/35/84
f 124/35/76 123/35/74 156/35/76
f 121/35/70 120/35/68 153/35/70
f 118/35/64 117/35/62 150/35/64
f 115/35/58 114/35/56 147/35/58
f 112/35/51 111/35/49 143/35/49
f 109/35/45 108/35/43 140/35/43
f 106/35/39 105/35/37 137/35/37
f 103/35/33 102/35/31 134/35/31
f 100/35/27 99/35/25 131/35/25
f 97/35/22 128/35/83 129/35/22
f 126/35/80 125/35/78 158/35/80
f 123/35/74 122/35/72 155/35/74
f 120/35/68 119/35/66 152/35/68
f 117/35/62 116/35/60 149/35/62
f 114/35/56 113/35/53 146/35/56
f 111/35/49 110/35/47 142/35/47
f 108/35/43 107/35/41 139/35/41
f 105/35/37 104/35/35 136/35/35
f 102/35/31 101/35/29 133/35/29
f 162/35/86 161/35/87 163/35/88
f 143/35/49 142/35/47 174/35/89
f 140/35/43 139/35/41 171/35/90
f 137/35/37 136/35/35 168/35/91
f 134/35/31 133/35/29 165/35/92
f 131/35/25 130/35/23 162/35/86
f 160/35/83 159/35/84 192/35/93
f 157/35/78 156/35/76 189/35/94
f 154/35/72 153/35/70 186/35/95
f 151/35/66 150/35/64 183/35/96
f 148/35/60 147/35/58 180/35/97
f 145/35/53 144/35/51 176/35/98
f 142/35/47 141/35/45 173/35/99
f 139/35/41 138/35/39 170/35/100
f 136/35/35 135/35/33 167/35/101
f 133/35/29 132/35/27 164/35/102
f 130/35/23 129/35/22 161/35/87
f 159/35/84 158/35/80 191/35/103
f 156/35/76 155/35/74 188/35/104
f 153/35/70 152/35/68 185/35/105
f 150/35/64 149/35/62 182/35/106
f 147/35/58 146/35/56 179/35/107
f 144/35/51 143/35/49 175/35/108
f 141/35/45 140/35/43 172/35/109
f 138/35/39 137/35/37 169/35/110
f 135/35/33 134/35/31 166/35/111
f 132/35/27 131/35/25 163/35/88
f 129/35/22 160/35/83 161/35/87
f 158/35/80 157/35/78 190/35/112
f 155/35/74 154/35/72 187/35/113
f 152/35/68 151/35/66 184/35/114
f 149/35/62 148/35/60 181/35/115
f 3/35/24 1/35/21 4/35/23
f 5/35/26 3/35/24 6/35/25
f 7/35/28 5/35/26 8/35/27
f 9/35/30 7/35/28 10/35/29
f 11/35/32 9/35/30 12/35/31
f 13/35/34 11/35/32 14/35/33
f 15/35/36 13/35/34 16/35/35
f 17/35/38 15/35/36 18/35/37
f 19/35/40 17/35/38 20/35/39
f 21/35/42 19/35/40 22/35/41
f 23/35/44 21/35/42 24/35/43
f 25/35/46 23/35/44 26/35/45
f 27/35/48 25/35/46 28/35/47
f 29/35/50 27/35/48 30/35/49
f 31/35/52 29/35/50 32/35/51
f 33/35/54 31/35/52 34/35/53
f 34/35/53 36/35/56 35/35/55
f 36/35/56 38/35/58 37/35/57
f 38/35/58 40/35/60 39/35/59
f 40/35/60 42/35/62 41/35/61
f 42/35/62 44/35/64 43/35/63
f 44/35/64 46/35/66 45/35/65
f 46/35/66 48/35/68 47/35/67
f 48/35/68 50/35/70 49/35/69
f 50/35/70 52/35/72 51/35/71
f 52/35/72 54/35/74 53/35/73
f 54/35/74 56/35/76 55/35/75
f 56/35/76 58/35/78 57/35/77
f 58/35/78 60/35/80 59/35/79
f 60/35/80 62/35/84 61/35/81
f 38/35/58 83/35/58 84/35/60
f 64/35/83 2/35/22 1/35/21
f 62/35/84 64/35/83 63/35/82
f 45/35/65 39/35/59 43/35/63
f 47/35/67 39/35/59 45/35/65
f 49/35/69 39/35/59 47/35/67
f 51/35/71 39/35/59 49/35/69
f 53/35/73 39/35/59 51/35/71
f 55/35/75 39/35/59 53/35/73
f 57/35/77 39/35/59 55/35/75
f 1/35/21 3/35/24 63/35/82
f 3/35/24 5/35/26 63/35/82
f 5/35/26 7/35/28 63/35/82
f 7/35/28 9/35/30 63/35/82
f 9/35/30 11/35/32 63/35/82
f 11/35/32 13/35/34 63/35/82
f 13/35/34 15/35/36 63/35/82
f 15/35/36 17/35/38 63/35/82
f 17/35/38 19/35/40 63/35/82
f 19/35/40 21/35/42 63/35/82
f 21/35/42 23/35/44 63/35/82
f 23/35/44 25/35/46 63/35/82
f 25/35/46 27/35/48 63/35/82
f 59/35/79 39/35/59 57/35/77
f 27/35/48 29/35/50 63/35/82
f 29/35/50 31/35/52 63/35/82
f 31/35/52 33/35/54 63/35/82
f 33/35/54 35/35/55 63/35/82
f 35/35/55 37/35/57 63/35/82
f 37/35/57 39/35/59 63/35/82
f 39/35/59 59/35/79 63/35/82
f 59/35/79 61/35/81 63/35/82
f 92/35/76 124/35/76 125/35/78
f 36/35/56 82/35/56 83/35/58
f 34/35/53 81/35/53 82/35/56
f 81/35/53 34/35/53 80/35/51
f 80/35/51 32/35/51 79/35/49
f 79/35/49 30/35/49 78/35/47
f 78/35/47 28/35/47 77/35/45
f 77/35/45 26/35/45 76/35/43
f 76/35/43 24/35/43 75/35/41
f 75/35/41 22/35/41 74/35/39
f 74/35/39 20/35/39 73/35/37
f 73/35/37 18/35/37 72/35/35
f 72/35/35 16/35/35 71/35/33
f 71/35/33 14/35/33 70/35/31
f 70/35/31 12/35/31 69/35/29
f 69/35/29 10/35/29 68/35/27
f 68/35/27 8/35/27 67/35/25
f 67/35/25 6/35/25 66/35/23
f 64/35/83 96/35/83 65/35/22
f 62/35/84 95/35/84 96/35/83
f 60/35/80 94/35/80 95/35/84
f 58/35/78 93/35/78 94/35/80
f 56/35/76 92/35/76 93/35/78
f 54/35/74 91/35/74 92/35/76
f 52/35/72 90/35/72 91/35/74
f 50/35/70 89/35/70 90/35/72
f 48/35/68 88/35/68 89/35/70
f 46/35/66 87/35/66 88/35/68
f 66/35/23 4/35/23 65/35/22
f 44/35/64 86/35/64 87/35/66
f 42/35/62 85/35/62 86/35/64
f 40/35/60 84/35/60 85/35/62
f 131/35/25 99/35/25 130/35/23
f 89/35/70 121/35/70 122/35/72
f 86/35/64 118/35/64 119/35/66
f 83/35/58 115/35/58 116/35/60
f 113/35/53 81/35/53 112/35/51
f 110/35/47 78/35/47 109/35/45
f 107/35/41 75/35/41 106/35/39
f 104/35/35 72/35/35 103/35/33
f 101/35/29 69/35/29 100/35/27
f 98/35/23 66/35/23 97/35/22
f 94/35/80 126/35/80 127/35/84
f 91/35/74 123/35/74 124/35/76
f 88/35/68 120/35/68 121/35/70
f 85/35/62 117/35/62 118/35/64
f 82/35/56 114/35/56 115/35/58
f 112/35/51 80/35/51 111/35/49
f 109/35/45 77/35/45 108/35/43
f 106/35/39 74/35/39 105/35/37
f 103/35/33 71/35/33 102/35/31
f 100/35/27 68/35/27 99/35/25
f 96/35/83 128/35/83 97/35/22
f 93/35/78 125/35/78 126/35/80
f 90/35/72 122/35/72 123/35/74
f 87/35/66 119/35/66 120/35/68
f 84/35/60 116/35/60 117/35/62
f 81/35/53 113/35/53 114/35/56
f 111/35/49 79/35/49 110/35/47
f 108/35/43 76/35/43 107/35/41
f 105/35/37 73/35/37 104/35/35
f 102/35/31 70/35/31 101/35/29
f 99/35/25 67/35/25 98/35/23
f 95/35/84 127/35/84 128/35/83
f 145/35/53 177/35/116 178/35/85
f 127/35/84 159/35/84 160/35/83
f 124/35/76 156/35/76 157/35/78
f 121/35/70 153/35/70 154/35/72
f 118/35/64 150/35/64 151/35/66
f 115/35/58 147/35/58 148/35/60
f 145/35/53 113/35/53 144/35/51
f 142/35/47 110/35/47 141/35/45
f 139/35/41 107/35/41 138/35/39
f 136/35/35 104/35/35 135/35/33
f 133/35/29 101/35/29 132/35/27
f 130/35/23 98/35/23 129/35/22
f 126/35/80 158/35/80 159/35/84
f 123/35/74 155/35/74 156/35/76
f 120/35/68 152/35/68 153/35/70
f 117/35/62 149/35/62 150/35/64
f 114/35/56 146/35/56 147/35/58
f 144/35/51 112/35/51 143/35/49
f 141/35/45 109/35/45 140/35/43
f 138/35/39 106/35/39 137/35/37
f 135/35/33 103/35/33 134/35/31
f 132/35/27 100/35/27 131/35/25
f 128/35/83 160/35/83 129/35/22
f 125/35/78 157/35/78 158/35/80
f 122/35/72 154/35/72 155/35/74
f 119/35/66 151/35/66 152/35/68
f 116/35/60 148/35/60 149/35/62
f 113/35/53 145/35/53 146/35/56
f 143/35/49 111/35/49 142/35/47
f 140/35/43 108/35/43 139/35/41
f 137/35/37 105/35/37 136/35/35
f 134/35/31 102/35/31 133/35/29
f 161/35/87 192/35/93 163/35/88
f 192/35/93 191/35/103 163/35/88
f 191/35/103 190/35/112 163/35/88
f 190/35/112 189/35/94 163/35/88
f 189/35/94 188/35/104 163/35/88
f 188/35/104 187/35/113 163/35/88
f 187/35/113 186/35/95 163/35/88
f 186/35/95 185/35/105 163/35/88
f 185/35/105 184/35/114 163/35/88
f 184/35/114 183/35/96 163/35/88
f 183/35/96 182/35/106 163/35/88
f 182/35/106 181/35/115 163/35/88
f 181/35/115 180/35/97 163/35/88
f 180/35/97 179/35/107 163/35/88
f 179/35/107 178/35/85 163/35/88
f 178/35/85 177/35/116 163/35/88
f 177/35/116 176/35/98 163/35/88
f 176/35/98 175/35/108 163/35/88
f 175/35/108 174/35/89 163/35/88
f 174/35/89 173/35/99 163/35/88
f 173/35/99 172/35/109 163/35/88
f 172/35/109 171/35/90 163/35/88
f 171/35/90 170/35/100 163/35/88
f 170/35/100 169/35/110 163/35/88
f 169/35/110 168/35/91 163/35/88
f 168/35/91 167/35/101 163/35/88
f 167/35/101 166/35/111 163/35/88
f 166/35/111 165/35/92 164/35/102
f 163/35/88 166/35/111 164/35/102
f 175/35/108 143/35/49 174/35/89
f 172/35/109 140/35/43 171/35/90
f 169/35/110 137/35/37 168/35/91
f 166/35/111 134/35/31 165/35/92
f 163/35/88 131/35/25 162/35/86
f 159/35/84 191/35/103 192/35/93
f 156/35/76 188/35/104 189/35/94
f 153/35/70 185/35/105 186/35/95
f 150/35/64 182/35/106 183/35/96
f 147/35/58 179/35/107 180/35/97
f 177/35/116 145/35/53 176/35/98
f 174/35/89 142/35/47 173/35/99
f 171/35/90 139/35/41 170/35/100
f 168/35/91 136/35/35 167/35/101
f 165/35/92 133/35/29 164/35/102
f 162/35/86 130/35/23 161/35/87
f 158/35/80 190/35/112 191/35/103
f 155/35/74 187/35/113 188/35/104
f 152/35/68 184/35/114 185/35/105
f 149/35/62 181/35/115 182/35/106
f 146/35/56 178/35/85 179/35/107
f 176/35/98 144/35/51 175/35/108
f 173/35/99 141/35/45 172/35/109
f 170/35/100 138/35/39 169/35/110
f 167/35/101 135/35/33 166/35/111
f 164/35/102 132/35/27 163/35/88
f 160/35/83 192/35/93 161/35/87
f 157/35/78 189/35/94 190/35/112
f 154/35/72 186/35/95 187/35/113
f 151/35/66 183/35/96 184/35/114
f 148/35/60 180/35/97 181/35/115
usemtl Material
s off
f 221/35/8 222/35/8 223/35/8 224/35/8
f 225/35/5 228/35/5 227/35/5 226/35/5
f 221/35/37 225/35/37 226/35/37 222/35/37
f 222/35/53 226/35/53 227/35/53 223/35/53
f 223/35/70 227/35/70 228/35/70 224/35/70
f 225/35/22 221/35/22 224/35/22 228/35/22
